<svg xmlns="http://www.w3.org/2000/svg" viewBox="0 0 30.39 33.69"><defs><style>.cls-1{fill:#61aa90;}</style></defs><title>ICO_Sospechas</title><g id="Capa_2" data-name="Capa 2"><g id="Capa_1-2" data-name="Capa 1"><g id="FfUtsq.tif"><path class="cls-1" d="M30.39,16.17a4.71,4.71,0,0,1-.65,1.57A2.81,2.81,0,0,1,27.35,19a.41.41,0,0,0-.47.36A12.7,12.7,0,0,1,25.21,23c-.28.44-.7.57-1.05.33A.72.72,0,0,1,24,22.3a11.05,11.05,0,0,0,1.62-3.82,7,7,0,0,0,.13-1.37c0-1,0-1.95,0-2.92,0-.29-.1-.41-.39-.44A78.29,78.29,0,0,1,13,11.64c-.72-.19-1.44-.38-2.15-.59a3.46,3.46,0,0,0-1.94,0,9.34,9.34,0,0,0-4,2.18.61.61,0,0,0-.24.5V17.2a9,9,0,0,0,1.29,4.33,14,14,0,0,0,1,1.54c.16.22.28.23.5.07A17.74,17.74,0,0,1,13,20.2a9.19,9.19,0,0,1,2.9-.44,2.43,2.43,0,0,1,2.55,3.08,12.81,12.81,0,0,1-1.14,3.25c-.23.5-.5,1-.75,1.5,0,.07-.13.14-.05.23s.14,0,.22,0a10.5,10.5,0,0,0,2.95-1.24,3.18,3.18,0,0,1,.4-.23.68.68,0,0,1,.91.25.64.64,0,0,1-.19.9,8.83,8.83,0,0,1-1.39.81,10,10,0,0,1-3.54,1.06.55.55,0,0,0-.45.32c-.63,1.14-1.27,2.28-1.91,3.41l-.13.23a.69.69,0,0,1-1.22,0c-.29-.42-.58-.85-.85-1.28a1,1,0,0,0-.88-.48,13.92,13.92,0,0,1-1.71,0,2.22,2.22,0,0,1-1.59-1c-.3-.42-.58-.85-.86-1.29a.91.91,0,0,0-.82-.44H3.91a.68.68,0,0,1-.64-1.1,13.78,13.78,0,0,1,2.49-3.2c.33-.33.33-.33.06-.69a12.92,12.92,0,0,1-2.31-4.61A.3.3,0,0,0,3.17,19,3.2,3.2,0,0,1,0,15.74a3.82,3.82,0,0,1,.24-1.67,2.37,2.37,0,0,1,2.38-1.58c.67,0,.6,0,.6-.61a23.39,23.39,0,0,1,.41-5.22,4.34,4.34,0,0,1,3.3-3.54,3.46,3.46,0,0,1,1.63,0A.66.66,0,0,0,9.2,3,15.39,15.39,0,0,1,13.12.57,12,12,0,0,1,15.41,0h2a.32.32,0,0,0,.09,0,13.07,13.07,0,0,1,4.64,1.56c.72.39,1.41.81,2.12,1.2a3.12,3.12,0,0,0,2.26.3l2.22-.56a.7.7,0,0,1,.9.72,5.68,5.68,0,0,1-.86,2.8,6.46,6.46,0,0,1-1.48,1.56A1.45,1.45,0,0,0,26.73,9c.11.9.2,1.8.31,2.7.09.74.1.73.85.75A2.34,2.34,0,0,1,30,13.71a5.16,5.16,0,0,1,.39,1.08ZM4.65,11.54h.1l.16-.1A10.2,10.2,0,0,1,8,9.87a5.09,5.09,0,0,1,3.16-.16,67.9,67.9,0,0,0,9,2c1.76.26,3.52.45,5.28.66.18,0,.2-.06.19-.21-.11-1-.22-2.07-.34-3.1a2.47,2.47,0,0,1,.78-2.23l1-1A3.39,3.39,0,0,0,28,4.51c0-.1.12-.22,0-.31s-.19,0-.28,0a9.74,9.74,0,0,1-1.71.32A5.21,5.21,0,0,1,23,3.63,18.94,18.94,0,0,0,19.61,2a8.3,8.3,0,0,0-7.19.46,23.45,23.45,0,0,0-2.8,2,1,1,0,0,1-1,.17,2.42,2.42,0,0,0-1.36-.08A3,3,0,0,0,5,6.94a16.62,16.62,0,0,0-.33,2.9C4.62,10.41,4.65,11,4.65,11.54Zm11,9.57c-.32,0-.62.06-.92.11a13.23,13.23,0,0,0-4.43,1.68,16,16,0,0,0-4.94,4.25c-.07.1-.21.19-.16.31s.21.06.32.06a2.13,2.13,0,0,1,1.88,1c.25.37.51.72.72,1.1a1.06,1.06,0,0,0,1.11.6c.35,0,.72,0,1.08,0a2.29,2.29,0,0,1,2.24,1.2c.09.15.16.28.3,0,1.13-2.05,2.33-4.07,3.32-6.19a9.81,9.81,0,0,0,.94-2.86.93.93,0,0,0-.76-1.18C16.09,21.16,15.85,21.14,15.62,21.11ZM3.23,15.79h0V14.18c0-.1,0-.22-.12-.28a1.25,1.25,0,0,0-1.54.61A2.57,2.57,0,0,0,1.85,17a1.32,1.32,0,0,0,1,.59c.26,0,.38,0,.36-.33C3.21,16.78,3.23,16.28,3.23,15.79Zm24,0c0,.52,0,1,0,1.57,0,.24.08.31.31.3a1.46,1.46,0,0,0,1.15-.72A2.65,2.65,0,0,0,29,15.52c.07-1.12-.46-1.67-1.55-1.64-.23,0-.31.09-.3.31C27.2,14.71,27.19,15.22,27.19,15.74Z"/><path class="cls-1" d="M9.93,17.27l-1.5-.8A.69.69,0,0,1,8,15.76a.67.67,0,0,1,1-.55c.94.47,1.88.95,2.79,1.47a.65.65,0,0,1,0,1.17c-.92.52-1.87,1-2.81,1.48A.65.65,0,0,1,8.07,19a.67.67,0,0,1,.29-.9C8.86,17.83,9.36,17.57,9.93,17.27Z"/><path class="cls-1" d="M20.53,17.29c.51.27,1,.53,1.51.81a.69.69,0,0,1-.18,1.28.62.62,0,0,1-.48-.08c-.89-.46-1.79-.92-2.67-1.4a.68.68,0,0,1,0-1.27c.88-.49,1.77-.94,2.67-1.4A.68.68,0,1,1,22,16.44c-.4.23-.81.44-1.22.65A.64.64,0,0,0,20.53,17.29Z"/><path class="cls-1" d="M23.31,25.08a.68.68,0,1,1-1.35,0,.7.7,0,0,1,.66-.71A.69.69,0,0,1,23.31,25.08Z"/><path class="cls-1" d="M14.61,22.7a.7.7,0,0,1,.71.6.73.73,0,0,1-.58.77,12.2,12.2,0,0,0-2.59,1c-.34.17-.67.38-1,.56a.69.69,0,0,1-1-.24.67.67,0,0,1,.26-.94,13.33,13.33,0,0,1,4-1.73Z"/></g></g></g></svg>