<svg xmlns="http://www.w3.org/2000/svg" viewBox="0 0 29.02 29.03"><defs><style>.cls-1{fill:#61aa90;}</style></defs><title>ICO_Padecimiento</title><g id="Capa_2" data-name="Capa 2"><g id="Capa_1-2" data-name="Capa 1"><g id="_4cIKCB.tif" data-name="4cIKCB.tif"><path class="cls-1" d="M11.3,0a2,2,0,0,1,1.08.77.36.36,0,0,0,.33.12c.88,0,1.76,0,2.63,0a.91.91,0,0,1,1,1c0,2.18,0,4.36,0,6.54a7,7,0,0,1-1.05,3.39A14.84,14.84,0,0,1,12,15.72a2.37,2.37,0,0,1-1.2.53.54.54,0,0,0-.41.27c-.32.49-.64,1-1,1.47a1.47,1.47,0,0,0-.28.92,8.2,8.2,0,0,0,1.79,5.17,8,8,0,0,0,5.9,3,4.44,4.44,0,0,0,4.44-2.43,4.54,4.54,0,0,0,.36-1c.07-.21,0-.28-.2-.32a5.42,5.42,0,0,1-2-.78,6.28,6.28,0,0,1-3.06-5.33A6.36,6.36,0,0,1,28.92,16c0,.18.06.36.1.53V18a.74.74,0,0,0,0,.14,6.34,6.34,0,0,1-5.21,5.31.32.32,0,0,0-.29.32,6.35,6.35,0,0,1-3.77,4.74,6.69,6.69,0,0,1-3.8.42,9.82,9.82,0,0,1-7.24-4.77,9.67,9.67,0,0,1-1.42-5.32.82.82,0,0,0-.09-.57c-.41-.6-.81-1.21-1.21-1.81a.41.41,0,0,0-.32-.2,2.54,2.54,0,0,1-1.32-.6,13.94,13.94,0,0,1-3.35-4A7.58,7.58,0,0,1,0,7.85c0-2,0-4,0-5.95a.91.91,0,0,1,1-1c.88,0,1.76,0,2.64,0A.33.33,0,0,0,4,.77,2,2,0,0,1,5.07,0h.79L6,0A1.83,1.83,0,0,1,7.29,1.78,1.8,1.8,0,0,1,6.1,3.53,1.75,1.75,0,0,1,4,2.89a.38.38,0,0,0-.34-.15c-.49,0-1,0-1.47,0-.27,0-.36.07-.35.35,0,1.66,0,3.32,0,5a4.8,4.8,0,0,0,.26,1.55,10.84,10.84,0,0,0,3.46,4.67.92.92,0,0,0,.64.19h3.93a1,1,0,0,0,.66-.21,14.55,14.55,0,0,0,2.35-2.55,6.24,6.24,0,0,0,1.33-3.52c0-1.74,0-3.47,0-5.21,0-.18-.07-.25-.25-.24h-1.5A.53.53,0,0,0,12.3,3a1.78,1.78,0,0,1-2.58.27A1.83,1.83,0,0,1,9.58.53,2.24,2.24,0,0,1,10.5,0ZM22.65,21.72a4.48,4.48,0,0,0,4.51-4.44,4.49,4.49,0,0,0-9-.18A4.49,4.49,0,0,0,22.65,21.72Z"/><path class="cls-1" d="M19.94,17.16A2.74,2.74,0,1,1,22.67,20,2.71,2.71,0,0,1,19.94,17.16Zm2.77-.82a.87.87,0,1,0,.84.9A.9.9,0,0,0,22.71,16.34Z"/></g></g></g></svg>