<svg xmlns="http://www.w3.org/2000/svg" viewBox="0 0 19.9 18.23"><defs><style>.cls-1{fill:#61aa90;}</style></defs><title>Recurso 55</title><g id="Capa_2" data-name="Capa 2"><g id="Capa_1-2" data-name="Capa 1"><g id="Pm0bZS.tif"><path class="cls-1" d="M0,17.29,6.92,4.71Q8.11,2.58,9.27.45A.75.75,0,0,1,9.94,0a.73.73,0,0,1,.67.45l5.73,10.41q1.71,3.09,3.4,6.19c.3.54.18.88-.36,1.18q-9.55,0-19.13,0C0,18.23,0,18.18,0,18S0,17.52,0,17.29Zm9.91-.5h7.71c.32,0,.33,0,.17-.29l-2.91-5.31L10.08,2.45c0-.06-.05-.16-.13-.17s-.1.1-.13.16c-.31.54-.61,1.09-.91,1.64L2.1,16.46c-.18.32-.18.33.2.33Z"/><path class="cls-1" d="M9,9.53C9,8.78,9,8,9,7.27a1.12,1.12,0,0,1,.2-.75.88.88,0,0,1,1.57.38,3,3,0,0,1,0,.52v4.26a2.74,2.74,0,0,1,0,.5.88.88,0,0,1-1.74,0,4.58,4.58,0,0,1,0-.74Z"/><path class="cls-1" d="M9,14.69a.93.93,0,1,1,.91.94A.93.93,0,0,1,9,14.69Z"/></g></g></g></svg>