<svg xmlns="http://www.w3.org/2000/svg" viewBox="0 0 21.8 21.25"><defs><style>.cls-1{fill:#61aa90;}</style></defs><title>ICO_Peso</title><g id="Capa_2" data-name="Capa 2"><g id="Capa_1-2" data-name="Capa 1"><path class="cls-1" d="M6.9,16.65c0-.17,0-.26,0-.34a1.85,1.85,0,0,0-.95-2A7.79,7.79,0,0,1,3,6.08a8,8,0,1,1,12,8.67,1,1,0,0,0-.37.63,8.77,8.77,0,0,0,0,1.27h5.95c.78,0,1.18.3,1.16.85s-.38.82-1.12.82H1c-.62,0-1-.34-1-.85s.39-.82,1-.82H6.9ZM10.81,14a6,6,0,0,0,6-6.09,6.13,6.13,0,0,0-6.06-6,6,6,0,1,0,0,12.05Z"/><path class="cls-1" d="M11,19.57c3.23,0,6.45,0,9.68,0a1.43,1.43,0,0,1,1,.4c.44.54,0,1.25-.82,1.26-1.4,0-4.2,0-4.2,0H1.52a4.58,4.58,0,0,1-.83,0A.76.76,0,0,1,0,20.36a.76.76,0,0,1,.69-.78,4.39,4.39,0,0,1,.63,0Z"/><path class="cls-1" d="M12.48,8a1.69,1.69,0,0,1-2.3,1.6,1,1,0,0,0-.73.09c-.66.34-1.28.75-1.92,1.13s-1,.26-1.22-.15,0-.85.46-1.09S7.6,9,8,8.79A1.91,1.91,0,0,0,9.26,7.35a1.56,1.56,0,0,1,1.88-1A1.68,1.68,0,0,1,12.48,8Z"/></g></g></svg>