<svg xmlns="http://www.w3.org/2000/svg" viewBox="0 0 32.37 32.37"><defs><style>.cls-1{fill:#61aa90;}</style></defs><title>ICO_Recomendaciones</title><g id="Capa_2" data-name="Capa 2"><g id="Capa_1-2" data-name="Capa 1"><g id="_6qlUlw.tif" data-name="6qlUlw.tif"><path class="cls-1" d="M32.37,16.12A4.76,4.76,0,0,1,31,19.52C27.19,23.35,23.37,27.19,19.52,31a4.74,4.74,0,0,1-6.74-.07Q7.1,25.23,1.39,19.54a4.74,4.74,0,0,1-.07-6.64Q7.08,7.08,12.9,1.32a4.75,4.75,0,0,1,6.64.07L31,12.82A4.73,4.73,0,0,1,32.37,16.12ZM16.22,30.38a2.68,2.68,0,0,0,2-.83L29.54,18.21a3.21,3.21,0,0,0,.55-.76,2.79,2.79,0,0,0-.6-3.33L23.33,8l-5-5a3.18,3.18,0,0,0-1.24-.84,2.79,2.79,0,0,0-3,.77L5.41,11.58,2.85,14.15A2.79,2.79,0,0,0,2,16.73a3,3,0,0,0,1,1.62l8.1,8.11,3.05,3A2.77,2.77,0,0,0,16.22,30.38Z"/><path class="cls-1" d="M19.05,12.44c0,2.06,0,4.12,0,6.18,0,.34-.1.44-.44.44-1.63,0-3.27,0-4.9,0-.32,0-.43-.1-.43-.43q0-6.19,0-12.39c0-.48,0-.48.49-.49h4.83c.35,0,.44.1.44.44C19,8.27,19.05,10.35,19.05,12.44Zm-3.77-.07h0c0,1.44,0,2.89,0,4.33,0,.27.08.39.36.37s.67,0,1,0,.44-.12.43-.45c0-1.67,0-3.33,0-5,0-1.18,0-2.35,0-3.53,0-.27-.09-.39-.37-.38a9,9,0,0,1-1,0c-.32,0-.4.11-.4.41C15.29,9.54,15.28,11,15.28,12.37Z"/><path class="cls-1" d="M16.19,20.89a2.87,2.87,0,0,1,0,5.74,2.93,2.93,0,0,1-2.9-2.89A2.88,2.88,0,0,1,16.19,20.89Zm.88,2.86a.83.83,0,0,0-.85-.88.86.86,0,0,0-.93.88.9.9,0,0,0,.9.9A.86.86,0,0,0,17.07,23.75Z"/></g></g></g></svg>