<svg xmlns="http://www.w3.org/2000/svg" viewBox="0 0 29.03 17.48"><defs><style>.cls-1{fill:#61aa90;}</style></defs><title>ICO_Sexo</title><g id="Capa_2" data-name="Capa 2"><g id="Capa_1-2" data-name="Capa 1"><path class="cls-1" d="M.76,2.16l-.1,0-.05,0-.06,0a.1.1,0,0,0-.05,0l0,0s0,0,0,0l0,0,0,0,0,0,0,.05,0,0a.21.21,0,0,0,0,.06l0,0A2.18,2.18,0,0,0,.05,3S0,3,0,3s0,.05,0,.07a.13.13,0,0,1,0,.06V3.2a.13.13,0,0,0,0,.06v.12a.17.17,0,0,0,0,.07v0s0,0,0,.07a.07.07,0,0,0,0,.05.14.14,0,0,0,0,.07l0,.08a.08.08,0,0,0,0,0L1.64,7.46A1.26,1.26,0,1,0,4,6.48L3.6,5.62l2.48,1a8.61,8.61,0,0,0,.43,5.51A8.74,8.74,0,0,0,23,6.53l1.51-.64.6,1.43a1.26,1.26,0,0,0,2.32-1l-.61-1.42,1.43-.61a1.25,1.25,0,1,0-1-2.31l-1.43.6-.6-1.43a1.25,1.25,0,1,0-2.31,1l.6,1.43L22,4.21A8.74,8.74,0,0,0,7,4.3l-2.49-1,.86-.36a1.26,1.26,0,1,0-1-2.32L.77,2.16ZM20.29,6.32A6.23,6.23,0,1,1,12.13,3,6.23,6.23,0,0,1,20.29,6.32Z"/></g></g></svg>