<svg xmlns="http://www.w3.org/2000/svg" viewBox="0 0 32.5 22.14"><defs><style>.cls-1{fill:#61aa90;}</style></defs><title>ICO_Edad</title><g id="Capa_2" data-name="Capa 2"><g id="Capa_1-2" data-name="Capa 1"><g id="dw10OE.tif"><path class="cls-1" d="M25.07,22.14H18.62c-.67,0-.93-.26-.93-.94a11.37,11.37,0,0,1,.19-2.85,6.64,6.64,0,0,1,2.83-4c.26-.17.26-.29.1-.53a8.94,8.94,0,0,1-1.34-3.45,3.61,3.61,0,0,0-.36-.89,5.1,5.1,0,0,1-.49-3.21,4.49,4.49,0,0,1,2.6-3.24.41.41,0,0,0,.28-.49A1.88,1.88,0,0,1,22.2,1,3.68,3.68,0,0,1,24.35.05,4.41,4.41,0,0,1,28,1a1.86,1.86,0,0,1,.7,1.84c0,.2.07.26.21.34a5,5,0,0,1,2.31,2.33,4.45,4.45,0,0,1-.24,4.42,2.06,2.06,0,0,0-.24.64,9.22,9.22,0,0,1-1.33,3.34c-.16.23-.14.34.1.5a6.61,6.61,0,0,1,3,5.55c0,.46,0,.92,0,1.38a.78.78,0,0,1-.86.85Zm0-1.55h5.48c.23,0,.39,0,.39-.33a5.16,5.16,0,0,0-2.62-4.79.51.51,0,0,0-.62,0,4.67,4.67,0,0,1-5.2,0,.54.54,0,0,0-.65,0,5.12,5.12,0,0,0-2.61,4.7c0,.33.1.42.41.41C21.46,20.58,23.26,20.59,25.07,20.59Zm-.25-5.88a3.54,3.54,0,0,0,3-1.39,8.45,8.45,0,0,0,1.49-4.2c0-.35-.07-.53-.42-.55-.13,0-.25,0-.38,0a1.76,1.76,0,0,1-1.11-.31c-.47-.38-.77-.29-1.2.09a4.09,4.09,0,0,1-2.59.91,13.45,13.45,0,0,1-2.37-.12c-.16,0-.47-.16-.42.23A8.77,8.77,0,0,0,22,12.83,3.47,3.47,0,0,0,24.82,14.71Zm.25-10.86c-.27,0-.53,0-.8,0a5.72,5.72,0,0,0-2.92.92,2.69,2.69,0,0,0-1.23,2.3c0,.33.05.52.44.42a1,1,0,0,1,.3,0,21.16,21.16,0,0,0,2.51.17A2.84,2.84,0,0,0,26.1,6.1a.76.76,0,0,1,1.37,0,1.08,1.08,0,0,1,.11.18A1.24,1.24,0,0,0,28.81,7a3,3,0,0,1,.88.16c.1,0,.22.17.31.07s0-.24,0-.36A3.14,3.14,0,0,0,28.63,4.8,5.69,5.69,0,0,0,25.07,3.85Zm1.86-1.41c.07,0,.15.07.18,0s0-.11-.06-.16a1.49,1.49,0,0,0-.66-.47,3.73,3.73,0,0,0-2.53,0,1.57,1.57,0,0,0-.66.41c-.05.05-.14.12-.1.2s.14,0,.22,0l.95-.11A8.79,8.79,0,0,1,26.93,2.44Z"/><path class="cls-1" d="M7.4,22.14H1c-.69,0-1-.27-1-.95a30.56,30.56,0,0,1,.06-3.45,4.88,4.88,0,0,1,2.24-3.56c.24-.17.28-.26.1-.52A10.41,10.41,0,0,1,.84,9.11,7.09,7.09,0,0,1,1.1,5.57a6,6,0,0,1,5.22-4,7.25,7.25,0,0,1,5.06,1A5.6,5.6,0,0,1,14.05,7a10.53,10.53,0,0,1-1.71,6.76c-.11.17-.07.25.08.35a5.17,5.17,0,0,1,2.41,4.51c0,.87,0,1.73,0,2.59,0,.64-.28.92-.93.92Zm0-1.55h0c1.82,0,3.65,0,5.48,0,.3,0,.41-.08.4-.39,0-.57,0-1.15,0-1.72a3.57,3.57,0,0,0-1.93-3.21.45.45,0,0,0-.54,0,6.17,6.17,0,0,1-6.75,0,.53.53,0,0,0-.6,0,3.55,3.55,0,0,0-1.81,2.48,19.4,19.4,0,0,0-.07,2.41c0,.35.11.43.43.43Zm.22-5.87A4.19,4.19,0,0,0,11,13a8.18,8.18,0,0,0,1.46-3.9c0-.18,0-.27-.23-.31a3.67,3.67,0,0,1-1.7-.86.24.24,0,0,0-.33,0,6.08,6.08,0,0,1-5.48,0,.29.29,0,0,0-.37,0,3.31,3.31,0,0,1-1.61.82c-.29.06-.34.2-.3.46a9.65,9.65,0,0,0,1,3A4.44,4.44,0,0,0,7.61,14.72ZM7.44,3a5,5,0,0,0-.55,0c-.29,0-.57.08-.85.13A4.44,4.44,0,0,0,2.37,7c-.05.3.06.29.27.22a1.85,1.85,0,0,0,1-.86.75.75,0,0,1,1.25-.19A3.1,3.1,0,0,0,6.8,7a4,4,0,0,0,3.06-.74c.59-.52,1-.45,1.42.22a1.78,1.78,0,0,0,1,.75c.18.06.28,0,.25-.19a4.43,4.43,0,0,0-1.32-2.63A5.18,5.18,0,0,0,7.44,3Z"/></g></g></g></svg>