<svg xmlns="http://www.w3.org/2000/svg" viewBox="0 0 45.5 49"><defs><style>.cls-1{fill:#61aa90;}.cls-2{fill:#b3b3b3;}</style></defs><title>ICO_Selecciona</title><g id="Capa_2" data-name="Capa 2"><g id="Capa_1-2" data-name="Capa 1"><path class="cls-1" d="M24.5,38.5A10.5,10.5,0,1,0,35,28,10.5,10.5,0,0,0,24.5,38.5Zm4.37-.88h5.25V32.38a.88.88,0,1,1,1.75,0v5.24h5.25a.88.88,0,1,1,0,1.76H35.87v5.24a.88.88,0,1,1-1.75,0V39.38H28.87a.88.88,0,0,1,0-1.76Z"/><path class="cls-2" d="M24.56,44.91a12.24,12.24,0,0,1,4-16.84,12.08,12.08,0,0,1,3.78-1.53A17,17,0,0,0,5.42,25.25,23.87,23.87,0,0,0,0,40.6c2,1,10.26,4.9,18.37,4.9A33.8,33.8,0,0,0,24.56,44.91Z"/><circle class="cls-2" cx="18.37" cy="8.75" r="8.75"/></g></g></svg>