<svg xmlns="http://www.w3.org/2000/svg" viewBox="0 0 19.7 19.71"><defs><style>.cls-1{fill:#61aa90;}</style></defs><title>ICO_Recomendaciones</title><g id="Capa_2" data-name="Capa 2"><g id="Capa_1-2" data-name="Capa 1"><path class="cls-1" d="M15.48,1.12A3.31,3.31,0,0,0,13,0a3.26,3.26,0,0,0-2.72,1.48l-.15.22L10,1.48a3.29,3.29,0,0,0-5.22-.36,3.82,3.82,0,0,0-.94,2.57A4.64,4.64,0,0,0,5.1,6.76,27.73,27.73,0,0,0,8.26,9.68l1.48,1.26a.52.52,0,0,0,.37.14.54.54,0,0,0,.38-.14L12,9.68c.82-.69,1.53-1.29,2.15-1.87,1.19-1.13,2.3-2.41,2.3-4.12A3.87,3.87,0,0,0,15.48,1.12ZM13.33,7c-.6.56-1.29,1.15-2.1,1.83l-1.12.94L9,8.8C6.48,6.67,5,5.39,5,3.69A2.37,2.37,0,0,1,7.25,1.15,2.11,2.11,0,0,1,9,2.13a3.86,3.86,0,0,1,.55,1.08.58.58,0,0,0,.55.43.59.59,0,0,0,.56-.43S11.26,1.15,13,1.15a2.37,2.37,0,0,1,2.28,2.54C15.26,4.73,14.72,5.65,13.33,7Z"/><path class="cls-1" d="M18,11.63a1.75,1.75,0,0,0-1.27.55L15,14a1.73,1.73,0,0,0-1.66-1.22H10.69a1.57,1.57,0,0,1-1-.38,4,4,0,0,0-5.29,0A1.75,1.75,0,0,0,3,11.63H.58A.57.57,0,0,0,0,12.2v6.93a.58.58,0,0,0,.58.58H3a1.69,1.69,0,0,0,1.3-.6l.35.1a13.18,13.18,0,0,0,3.59.5h5.15a4,4,0,0,0,3.23-1.62l2.78-3.69h0A1.73,1.73,0,0,0,18,11.63ZM3.54,18a.58.58,0,0,1-.58.58H1.15V12.78H3a.58.58,0,0,1,.58.58ZM18.43,13.7h0l-2.77,3.7a2.89,2.89,0,0,1-2.31,1.15H8.2a12.13,12.13,0,0,1-3.28-.45L4.69,18V13.62l.41-.36a2.9,2.9,0,0,1,3.81,0,2.64,2.64,0,0,0,1.78.67h2.66a.58.58,0,0,1,0,1.16H9.25a.58.58,0,1,0,0,1.15h4.49A1.75,1.75,0,0,0,15,15.69L17.55,13a.56.56,0,0,1,.42-.18.58.58,0,0,1,.58.58A.54.54,0,0,1,18.43,13.7Z"/></g></g></svg>