<svg xmlns="http://www.w3.org/2000/svg" viewBox="0 0 45.73 47.54"><defs><style>.cls-1{fill:#b3b3b3;}.cls-2{fill:#61aa90;}</style></defs><title>ICO_Estimación</title><g id="Capa_2" data-name="Capa 2"><g id="Capa_1-2" data-name="Capa 1"><path class="cls-1" d="M24.56,44.91a12.25,12.25,0,0,1,3-16.14l.1-7a18.83,18.83,0,0,0-9.28-2.54,17,17,0,0,0-12.95,6A23.87,23.87,0,0,0,0,40.6c2,1,10.26,4.9,18.37,4.9A33.8,33.8,0,0,0,24.56,44.91Z"/><path class="cls-2" d="M42.6,31.16V16.26a6.26,6.26,0,1,0-12.51,0v14.9a9.39,9.39,0,1,0,12.51,0ZM36.35,44.41a6.25,6.25,0,0,1-4.17-10.92l1-.93V16.26a3.13,3.13,0,1,1,6.25,0v16.3l1.05.93a6.26,6.26,0,0,1-4.17,10.92Z"/><rect class="cls-2" x="34.78" y="22.51" width="3.13" height="18.77"/><circle class="cls-2" cx="36.35" cy="38.16" r="4.69"/><path class="cls-1" d="M18.37,0a8.69,8.69,0,0,0-4.7,1.38L15,2.7a5.3,5.3,0,0,1,0,7.51,5.29,5.29,0,0,1-3.75,1.55,5.11,5.11,0,0,1-1.11-.13A8.74,8.74,0,1,0,18.37,0Z"/><path class="cls-2" d="M13.92,3.76l-2.69-2.7-2.7,2.7A3.81,3.81,0,1,0,15,6.45,3.77,3.77,0,0,0,13.92,3.76Z"/></g></g></svg>