<?xml version="1.0" ?><svg id="outline" viewBox="0 0 512 512" xmlns="http://www.w3.org/2000/svg"><circle cx="248" cy="112" r="8"/><circle cx="288" cy="112" r="8"/><path d="M416.28418,203.07324l-12.60547,9.85352A95.03721,95.03721,0,0,1,424,272v40H376V248H360V480H152V431.19971A92.62326,92.62326,0,0,0,164.1377,432H288a8.00006,8.00006,0,0,0,7.353-4.84863L303.56079,408H304v-1.0249l15.353-35.82373a7.99875,7.99875,0,0,0-.19776-6.72949l-8-16A7.99967,7.99967,0,0,0,304,344H267.09961l4.48975-13.46973a8.00083,8.00083,0,0,0-1.93262-8.1875l-8-8a8.00014,8.00014,0,0,0-10.09424-.999L205.57764,344H160V248H144v64H88V272a96.10874,96.10874,0,0,1,96-96h24v8a48,48,0,0,0,96,0V170.2644A63.7194,63.7194,0,0,0,320,128V60a44.04978,44.04978,0,0,0-44-44H232a40.04552,40.04552,0,0,0-40,40v72a63.58579,63.58579,0,0,0,8.61011,32H184A112.12706,112.12706,0,0,0,72,272v67.8623a92.29883,92.29883,0,0,0,64,87.73829V488a8.00008,8.00008,0,0,0,8,8H368a8.00008,8.00008,0,0,0,8-8v-8h16a48.054,48.054,0,0,0,48-48V272A110.88859,110.88859,0,0,0,416.28418,203.07324ZM256,216a32.03635,32.03635,0,0,1-32-32v-.61011a63.77,63.77,0,0,0,64,0V184A32.03635,32.03635,0,0,1,256,216Zm0-40a48.054,48.054,0,0,1-48-48V72h5.37256a17.54279,17.54279,0,0,1,12.48486,5.1709A36.72577,36.72577,0,0,0,252,88a36.04131,36.04131,0,0,0,32.60229-20.75488L304,76.94409V128A48.054,48.054,0,0,1,256,176ZM303.98389,59.04785,287.97571,51.0437a35.76224,35.76224,0,0,0-5.58154-18.29956A28.04807,28.04807,0,0,1,303.98389,59.04785ZM232,32h20a20,20,0,0,1,0,40,20.83361,20.83361,0,0,1-14.82861-6.14258A33.43754,33.43754,0,0,0,213.37256,56H208A24.02718,24.02718,0,0,1,232,32ZM88,339.8623V328h56v24a8.00008,8.00008,0,0,0,8,8h56a7.99983,7.99983,0,0,0,4.4375-1.34375l42.314-28.209-6.34082,19.02246A8.00022,8.00022,0,0,0,256,360h43.05566l4,8H264v16h32.43884l-3.42859,8H264v16h22.1532l-3.42859,8H164.1377A76.224,76.224,0,0,1,88,339.8623ZM392,464H376V446.62378A23.99123,23.99123,0,0,0,408,424V408H392v16a8,8,0,0,1-16,0V328h48V432A32.03635,32.03635,0,0,1,392,464Z"/><rect height="16" width="48" x="344" y="128"/><rect height="47.99975" transform="translate(64.67616 448.1295) rotate(-68.67676)" width="15.99973" x="352.33265" y="152.72718"/><rect height="48.00046" transform="translate(-46.70749 317.23871) rotate(-47.35465)" width="16.00075" x="330.37975" y="187.8777"/></svg>